<svg width="24" height="24" viewBox="0 0 24 24" fill="none" xmlns="http://www.w3.org/2000/svg">
<path d="M8.70711 12.2929C9.09763 12.6834 9.09763 13.3166 8.70711 13.7071C8.31658 14.0976 7.68342 14.0976 7.29289 13.7071L2.29289 8.70711C1.90237 8.31658 1.90237 7.68342 2.29289 7.29289L7.29289 2.29289C7.68342 1.90237 8.31658 1.90237 8.70711 2.29289C9.09763 2.68342 9.09763 3.31658 8.70711 3.70711L5.41421 7H15.5C19.0899 7 22 9.91015 22 13.5C22 17.0899 19.0899 20 15.5 20H9C8.44772 20 8 19.5523 8 19C8 18.4477 8.44772 18 9 18H15.5C17.9853 18 20 15.9853 20 13.5C20 11.0147 17.9853 9 15.5 9H5.41421L8.70711 12.2929Z" fill="#CAD3DB"/>
</svg>
