<?xml version="1.0" encoding="UTF-8"?>
<svg version="1.1" xmlns="http://www.w3.org/2000/svg" width="498" height="716">
<path d="M0 0 C164.34 0 328.68 0 498 0 C498 236.28 498 472.56 498 716 C333.66 716 169.32 716 0 716 C0 479.72 0 243.44 0 0 Z " fill="#0F5CAA" transform="translate(0,0)"/>
<path d="M0 0 C4.57824649 3.92421128 8.94725267 7.80264099 13.18292236 12.05708122 C13.7663259 12.63903132 14.34972943 13.22098141 14.95081186 13.82056636 C16.8956827 15.76180183 18.83699078 17.70656022 20.77832031 19.65133667 C22.1898432 21.06170677 23.60158391 22.47185889 25.0135231 23.88181221 C28.8857838 27.74990129 32.7549229 31.62109963 36.62354851 35.49282384 C40.79903659 39.67057463 44.97740126 43.84544672 49.15539551 48.02069092 C56.86439942 55.72550435 64.57112383 63.43259304 72.27666378 71.14087066 C79.3961196 78.26284344 86.51650587 85.38388435 93.63781738 92.50400162 C94.11045093 92.97655878 94.58308448 93.44911594 95.07004026 93.93599302 C96.98869406 95.85433548 98.90735139 97.77267441 100.82601453 99.69100753 C118.82043711 117.68237191 136.81194368 135.67664979 154.80214506 153.67223496 C170.77840859 169.65324323 186.75725411 185.63166553 202.73828125 201.60791016 C220.69973588 219.56400754 238.65957038 237.52172285 256.61680222 255.48204339 C258.53192584 257.39748772 260.4470534 259.31292812 262.36218262 261.22836685 C262.83372262 261.69998593 263.30526262 262.17160501 263.79109171 262.65751557 C270.90532029 269.77288062 278.02078001 276.88701292 285.13684082 284.0005455 C293.2305614 292.09146065 301.32249614 300.18415678 309.41215134 308.27913676 C313.53930671 312.40891919 317.66725565 316.53789997 321.79737854 320.66471481 C325.57942019 324.44377303 329.35913861 328.22513891 333.13703108 332.0083449 C334.50282331 333.37525258 335.86945545 334.74132166 337.23701906 336.1064571 C349.64640528 348.49550175 349.64640528 348.49550175 354.70785904 354.5012027 C356.55283471 356.64125138 358.61100951 358.52504108 360.6875 360.4375 C365.80755532 365.51386885 368.54053514 370.32428109 369.4375 377.5 C368.5262011 384.79039119 365.83008139 390.79262672 362 397 C361.34 397 360.68 397 360 397 C359.72760498 397.5765332 359.45520996 398.15306641 359.17456055 398.74707031 C357.12344314 402.68132753 354.41152713 406.16351837 351.8125 409.75 C351.26013672 410.5234375 350.70777344 411.296875 350.13867188 412.09375 C349.58373047 412.86203125 349.02878906 413.6303125 348.45703125 414.421875 C347.96178955 415.10862305 347.46654785 415.79537109 346.95629883 416.50292969 C345 419 345 419 343.57849884 420.51721096 C339.87173533 424.50312668 336.90015604 428.61940228 334.06156921 433.26570129 C320.50008119 455.29355645 301.35033147 479.41791217 275.56971073 487.01020718 C254.92170628 491.83840849 233.30298534 491.77286611 212.20703125 491.76171875 C211.50737321 491.76260145 210.80771518 491.76348415 210.08685538 491.7643936 C185.30167216 491.79119036 160.58369414 490.63595399 135.8125 489.6875 C68.5853125 487.8621875 68.5853125 487.8621875 0 486 C0 325.62 0 165.24 0 0 Z " fill="#0E84FE" transform="translate(0,230)"/>
<path d="M0 0 C123.42 0 246.84 0 374 0 C374 124.08 374 248.16 374 376 C369.61733558 372.24343049 365.51256928 368.63786687 361.45983887 364.58682251 C360.94835281 364.07689644 360.43686675 363.56697037 359.90988111 363.041592 C358.21815183 361.3538111 356.52997166 359.66252703 354.84179688 357.97119141 C353.62081704 356.75156836 352.39962495 355.53215777 351.17823792 354.3129425 C347.87636429 351.01561057 344.57764116 347.71514385 341.27962685 344.41395235 C337.81841242 340.95019685 334.35474814 337.4888925 330.89147949 334.02719116 C325.07608112 328.21360963 319.26278859 322.39792862 313.45068359 316.58105469 C306.74461043 309.86954241 300.03494603 303.16163658 293.32340002 296.45559752 C287.54810108 290.68484658 281.77476575 284.91213659 276.00304651 279.13780534 C272.56161071 275.69481572 269.11951525 272.25249287 265.67564392 268.81193924 C262.43611857 265.57531706 259.19907698 262.3362306 255.96388054 259.0952816 C254.78084064 257.91092706 253.59696312 256.72740849 252.41215706 255.54482079 C246.88048965 250.02255101 241.3906477 244.5062907 236.32141781 238.54825497 C234.59418162 236.52451804 232.75805424 234.62863502 230.87890625 232.74609375 C229.81639648 231.68165039 229.81639648 231.68165039 228.73242188 230.59570312 C228.01634766 229.88349609 227.30027344 229.17128906 226.5625 228.4375 C225.85029297 227.72142578 225.13808594 227.00535156 224.40429688 226.26757812 C221.04713928 222.91651891 217.65850632 219.65690494 214.0625 216.5625 C209.29699888 212.45257047 204.87482353 208.02107169 200.4375 203.5625 C199.62603516 202.75490234 198.81457031 201.94730469 197.97851562 201.11523438 C197.17994141 200.31537109 196.38136719 199.51550781 195.55859375 198.69140625 C194.85017334 197.98185791 194.14175293 197.27230957 193.41186523 196.54125977 C191.55567237 194.58548373 189.80900919 192.61142616 188.06324768 190.56126404 C183.15957344 184.94774568 177.85666879 179.73281212 172.57617188 174.47851562 C171.43357859 173.33784508 170.29121541 172.19694401 169.14906311 171.05583191 C166.70278489 168.61269773 164.2549661 166.17112171 161.80592346 163.73075867 C157.92769319 159.86613143 154.05335206 155.99762073 150.17956543 152.12854004 C141.9560105 143.91605207 133.72822946 135.70780407 125.5 127.5 C116.61480341 118.63685963 107.73035038 109.77298147 98.85078287 100.90420103 C95.00553921 97.06391775 91.15787591 93.22608085 87.3082962 89.39014435 C84.90816649 86.9975118 82.51014439 84.60277523 80.11266899 82.20748329 C79.0070547 81.10372951 77.90058215 80.00083461 76.79315376 78.89890099 C71.53599007 73.66698686 66.37278791 68.40857814 61.54617882 62.77202415 C59.05738215 59.91969701 56.38607382 57.26249749 53.69750977 54.59985352 C53.11127335 54.01507736 52.52503693 53.43030121 51.92103577 52.82780457 C50.66452652 51.57506386 49.40686493 50.32347805 48.14813423 49.07296944 C46.15826226 47.09597679 44.17163295 45.11577527 42.18577576 43.13475037 C37.98083633 38.9411657 33.77194323 34.75156316 29.5625 30.5625 C24.65864533 25.6822369 19.75641925 20.8003604 14.85835075 15.91428947 C12.89705698 13.95949682 10.93278833 12.00772677 8.96839905 10.05604553 C7.77769619 8.86897172 6.58713155 7.68175924 5.39672852 6.49438477 C4.84668152 5.94950409 4.29663452 5.40462341 3.72991943 4.8432312 C2.46749645 3.5809881 1.2306302 2.29325897 0 1 C0 0.67 0 0.34 0 0 Z " fill="#0D84FE" transform="translate(124,0)"/>
<path d="M0 0 C0.33 0 0.66 0 1 0 C1 3.3 1 6.6 1 10 C-2.3 10 -5.6 10 -9 10 C-8.2575 9.46375 -7.515 8.9275 -6.75 8.375 C-3.82649095 5.85015128 -2.06298806 3.24183838 0 0 Z " fill="#000000" transform="translate(497,706)"/>
<path d="M0 0 C0.53625 0.7425 1.0725 1.485 1.625 2.25 C4.14984872 5.17350905 6.75816162 6.93701194 10 9 C10 9.33 10 9.66 10 10 C6.7 10 3.4 10 0 10 C0 6.7 0 3.4 0 0 Z " fill="#000000" transform="translate(0,706)"/>
<path d="M0 0 C3.3 0 6.6 0 10 0 C10 3.3 10 6.6 10 10 C9.46375 9.2575 8.9275 8.515 8.375 7.75 C5.85015128 4.82649095 3.24183838 3.06298806 0 1 C0 0.67 0 0.34 0 0 Z " fill="#000000" transform="translate(488,0)"/>
<path d="M0 0 C3.3 0 6.6 0 10 0 C9.2575 0.53625 8.515 1.0725 7.75 1.625 C4.82649095 4.14984872 3.06298806 6.75816162 1 10 C0.67 10 0.34 10 0 10 C0 6.7 0 3.4 0 0 Z " fill="#000000" transform="translate(0,0)"/>
</svg>
