<svg width="16" height="16" viewBox="0 0 16 16" fill="none" xmlns="http://www.w3.org/2000/svg">
<path d="M8 0C12.4183 0 16 3.58172 16 8C16 12.4183 12.4183 16 8 16C3.58172 16 0 12.4183 0 8C0 3.58172 3.58172 0 8 0ZM8 1.45455C4.38505 1.45455 1.45455 4.38505 1.45455 8C1.45455 11.615 4.38505 14.5455 8 14.5455C11.615 14.5455 14.5455 11.615 14.5455 8C14.5455 4.38505 11.615 1.45455 8 1.45455Z" fill="#6B7885"/>
<path fill-rule="evenodd" clip-rule="evenodd" d="M8.00006 13.091C10.8117 13.091 13.091 10.8117 13.091 8.00009C13.091 5.18846 10.8117 2.90918 8.00006 2.90918V13.091Z" fill="#6B7885"/>
</svg>
