<svg width="16" height="16" viewBox="0 0 16 16" fill="none" xmlns="http://www.w3.org/2000/svg">
<path d="M8 0C12.4183 0 16 3.58172 16 8C16 12.4183 12.4183 16 8 16C3.58172 16 0 12.4183 0 8C0 3.58172 3.58172 0 8 0ZM8 1.45455C4.38505 1.45455 1.45455 4.38505 1.45455 8C1.45455 11.615 4.38505 14.5455 8 14.5455C11.615 14.5455 14.5455 11.615 14.5455 8C14.5455 4.38505 11.615 1.45455 8 1.45455Z" fill="#6B7885"/>
<path fill-rule="evenodd" clip-rule="evenodd" d="M2.90912 7.99995C2.90912 7.99996 2.90912 7.99996 2.90912 7.99997C2.90912 10.8116 5.1884 13.0909 8.00003 13.0909C10.8117 13.0909 13.0909 10.8116 13.0909 7.99997C13.0909 5.18834 10.8117 2.90907 8.00006 2.90906V7.99995H2.90912Z" fill="#6B7885"/>
</svg>
