<svg width="41" height="40" viewBox="0 0 41 40" fill="none" xmlns="http://www.w3.org/2000/svg">
<rect x="0.5" y="0.5" width="39.0646" height="39" rx="19.5" fill="white"/>
<rect x="0.5" y="0.5" width="39.0646" height="39" rx="19.5" stroke="#F3F5F7"/>
<g clip-path="url(#clip0_1054_660)">
<path fill-rule="evenodd" clip-rule="evenodd" d="M13.0382 21.4518C13.0382 21.8148 12.7345 22.1093 12.5059 22.1093H9.92075L13.1726 16.9233H8.82463V17.7824H9.04777C9.04777 17.4194 9.28343 17.1249 9.51202 17.1249H11.7462L8.47522 22.3109H13.1917V21.4518H13.0382Z" fill="black"/>
<path fill-rule="evenodd" clip-rule="evenodd" d="M16.8283 22.1423C17.1434 22.1423 17.4504 22.0119 17.3813 21.8913L16.7766 20.6959H14.6497L14.0951 21.8967C14.0368 22.0315 14.2801 22.1445 14.5082 22.1445V22.3129H13.2809V22.1445C13.5965 22.1445 13.8186 22.0065 13.8589 21.8978L16.1643 16.9232L18.6804 21.8913C18.7609 22.0217 18.9961 22.1423 19.383 22.1423V22.3108H16.8283V22.1423ZM14.7422 20.4997L15.662 18.4832L16.6895 20.4997H14.7422Z" fill="black"/>
<path fill-rule="evenodd" clip-rule="evenodd" d="M19.6763 17.1314C20.0507 17.1314 20.3593 17.2275 20.3593 17.3444C20.3593 18.2681 20.3593 21.887 20.3593 21.887C20.3593 22.0103 20.054 22.1478 19.6801 22.1478V22.3108H22.1809V22.1592C21.8092 22.1592 21.5082 22.0108 21.5082 21.8875V17.0863H22.2293C22.9238 17.0863 23.4866 17.6622 23.4866 18.3159C23.4866 18.9696 22.9227 19.4988 22.2283 19.4988H21.7292C21.7292 19.4988 23.4196 22.0527 23.4218 22.0527C23.4687 22.1324 23.5023 22.2192 23.5214 22.3097H25.3435V22.1592C24.9931 22.1592 24.8096 22.0136 24.7079 21.8875L23.0806 19.7683C23.8616 19.7173 24.4662 19.0864 24.4662 18.3382C24.4662 17.5563 23.7941 16.9254 22.9635 16.9254H19.6763V17.1314Z" fill="black"/>
<path fill-rule="evenodd" clip-rule="evenodd" d="M29.0618 22.1477C29.3769 22.1477 29.6833 22.0119 29.6147 21.8913L29.0101 20.6959H26.8831L26.3269 21.8945C26.2687 22.0293 26.512 22.1592 26.74 22.1592V22.3108H25.5149V22.1477C25.83 22.1477 26.0515 22.0043 26.0923 21.8956L28.3978 16.9232L30.9139 21.8913C30.9939 22.0217 31.2301 22.1537 31.6165 22.1537V22.3108H29.0618V22.1477ZM26.9757 20.4997L27.8954 18.4832L28.9235 20.4997H26.9757Z" fill="black"/>
</g>
<defs>
<clipPath id="clip0_1054_660">
<rect width="23.141" height="5.38754" fill="white" transform="translate(8.47522 16.9231)"/>
</clipPath>
</defs>
</svg>
