<svg width="63" height="28" viewBox="0 0 63 28" fill="none" xmlns="http://www.w3.org/2000/svg">
<rect x="0.149414" y="0.534424" width="62.8506" height="26.931" rx="13.4655" fill="url(#paint0_linear_1054_1077)"/>
<path d="M30.4571 19.4166C29.8835 19.5291 29.3212 19.5769 28.7701 19.56C28.219 19.5431 27.7269 19.4363 27.2939 19.2394C26.8609 19.0426 26.5347 18.7333 26.3154 18.3116C26.1186 17.9348 26.0117 17.5524 25.9948 17.1644C25.9836 16.7707 25.978 16.3265 25.978 15.8316V7.77588H27.7494V15.7472C27.7494 16.1128 27.7522 16.4305 27.7578 16.7004C27.7691 16.9704 27.8281 17.1981 27.935 17.3837C28.1374 17.7323 28.458 17.932 28.8966 17.9826C29.3409 18.0276 29.861 18.0079 30.4571 17.9235V19.4166ZM24.2319 11.7236V10.3065H30.4571V11.7236H24.2319Z" fill="white"/>
<path d="M33.7697 19.6696C33.0949 19.6696 32.5297 19.5459 32.0742 19.2985C31.6187 19.0454 31.2728 18.7136 31.0367 18.3031C30.8061 17.887 30.6908 17.4315 30.6908 16.9366C30.6908 16.4755 30.7723 16.0706 30.9354 15.7219C31.0985 15.3733 31.3403 15.078 31.6609 14.8362C31.9814 14.5888 32.3751 14.3892 32.8418 14.2373C33.2467 14.1192 33.705 14.0152 34.2168 13.9252C34.7285 13.8352 35.2656 13.7509 35.8279 13.6722C36.3959 13.5934 36.9582 13.5147 37.515 13.436L36.8739 13.7902C36.8851 13.0761 36.7333 12.5474 36.4184 12.2044C36.1091 11.8558 35.5748 11.6814 34.8157 11.6814C34.3377 11.6814 33.899 11.7939 33.4998 12.0188C33.1005 12.2382 32.8221 12.6037 32.6647 13.1154L31.0198 12.6093C31.2447 11.8276 31.6721 11.2062 32.3019 10.7451C32.9374 10.284 33.7809 10.0534 34.8325 10.0534C35.6479 10.0534 36.3565 10.194 36.9582 10.4752C37.5656 10.7507 38.0098 11.1894 38.291 11.7911C38.4372 12.0891 38.5272 12.404 38.5609 12.7358C38.5947 13.0676 38.6116 13.4247 38.6116 13.8071V19.4166H37.051V17.3331L37.3547 17.603C36.9779 18.3003 36.4971 18.8205 35.9123 19.1635C35.333 19.5009 34.6188 19.6696 33.7697 19.6696ZM34.0818 18.2272C34.5823 18.2272 35.0125 18.14 35.3724 17.9657C35.7323 17.7858 36.0219 17.558 36.2412 17.2825C36.4606 17.0069 36.604 16.7201 36.6714 16.4221C36.767 16.1521 36.8205 15.8485 36.8317 15.511C36.8486 15.1736 36.857 14.9037 36.857 14.7013L37.4306 14.9121C36.8739 14.9965 36.3678 15.0724 35.9123 15.1399C35.4567 15.2074 35.0434 15.2749 34.6723 15.3423C34.3067 15.4042 33.9806 15.4801 33.6938 15.5701C33.452 15.6544 33.2355 15.7557 33.0443 15.8738C32.8587 15.9919 32.7097 16.1353 32.5972 16.304C32.4903 16.4727 32.4369 16.6779 32.4369 16.9197C32.4369 17.1559 32.496 17.3752 32.6141 17.5777C32.7321 17.7745 32.9121 17.932 33.1539 18.0501C33.3957 18.1682 33.705 18.2272 34.0818 18.2272Z" fill="white"/>
<path d="M39.7897 19.4166V7.77638H41.5527V19.4166H39.7897Z" fill="white"/>
<path d="M44.1364 23.4655L45.8994 18.6658L45.9247 20.083L41.9517 10.3065H43.7906L46.7598 17.8561H46.2199L49.0542 10.3065H50.8425L45.815 23.4655H44.1364Z" fill="white"/>
<path d="M16.0307 10.5015C15.6403 10.7644 15.357 11.1585 15.2322 11.6124C15.1951 11.7706 15.1753 11.9324 15.1732 12.0949V20.1178L15.0239 20.2081C14.733 20.3773 14.4027 20.4667 14.0662 20.4674C13.7297 20.4681 13.399 20.38 13.1074 20.212C12.8158 20.044 12.5737 19.8021 12.4055 19.5107C12.2373 19.2193 12.149 18.8886 12.1494 18.5521V15.0805C12.1494 12.5219 15.4162 10.8972 16.0307 10.5015Z" fill="#CAD3DB"/>
<path fill-rule="evenodd" clip-rule="evenodd" d="M12.1495 15.0806L12.153 15.0797C12.153 12.7869 14.7764 11.244 15.7636 10.6634C15.8582 10.6078 15.9377 10.561 15.9985 10.5232C16.0395 10.4948 16.0817 10.468 16.125 10.4427L21.1888 7.49662V7.45503C21.1895 7.11706 21.1008 6.78491 20.9317 6.49227C20.7627 6.19963 20.5192 5.9569 20.2261 5.78868C19.9329 5.62047 19.6005 5.53276 19.2626 5.53445C18.9246 5.53613 18.5931 5.62715 18.3016 5.79828L13.1026 8.82757C12.8129 8.99644 12.5725 9.23825 12.4053 9.52892C12.238 9.81958 12.1498 10.149 12.1495 10.4843V15.0806Z" fill="#0E85FF"/>
<defs>
<linearGradient id="paint0_linear_1054_1077" x1="0.149414" y1="7.9084" x2="45.076" y2="22.304" gradientUnits="userSpaceOnUse">
<stop stop-color="#131F2B"/>
<stop offset="1" stop-color="#1C2E40"/>
</linearGradient>
</defs>
</svg>
