<svg width="87" height="40" viewBox="0 0 87 40" fill="none" xmlns="http://www.w3.org/2000/svg">
<path d="M40.8402 30.9678C39.5607 31.2187 38.3062 31.3253 37.0768 31.2877C35.8474 31.25 34.7497 31.0117 33.7838 30.5726C32.8178 30.1335 32.0902 29.4436 31.601 28.5027C31.1619 27.6622 30.9236 26.8092 30.8859 25.9436C30.8608 25.0654 30.8483 24.0744 30.8483 22.9704V5H34.7999V22.7823C34.7999 23.5977 34.8062 24.3065 34.8187 24.9086C34.8438 25.5108 34.9755 26.0188 35.2139 26.4328C35.6655 27.2106 36.3806 27.6559 37.359 27.7688C38.3501 27.8692 39.5105 27.8253 40.8402 27.6371V30.9678ZM26.9531 13.8065V10.6452H40.8402V13.8065H26.9531Z" fill="#1C2E40"/>
<path d="M48.2298 31.5323C46.7244 31.5323 45.4637 31.2563 44.4476 30.7043C43.4314 30.1398 42.6599 29.3997 42.133 28.4839C41.6187 27.5556 41.3615 26.5394 41.3615 25.4355C41.3615 24.4068 41.5434 23.5036 41.9072 22.7258C42.271 21.948 42.8105 21.2894 43.5255 20.75C44.2406 20.198 45.1187 19.7527 46.1599 19.414C47.0631 19.1506 48.0855 18.9185 49.2271 18.7178C50.3687 18.517 51.5667 18.3289 52.8212 18.1532C54.0882 17.9776 55.3427 17.802 56.5847 17.6264L55.1546 18.4167C55.1796 16.8235 54.8409 15.6443 54.1384 14.879C53.4485 14.1013 52.2567 13.7124 50.5631 13.7124C49.4968 13.7124 48.5183 13.9633 47.6277 14.4651C46.737 14.9543 46.116 15.7697 45.7648 16.9113L42.0954 15.7823C42.5972 14.0385 43.5506 12.6523 44.9556 11.6237C46.3732 10.595 48.2549 10.0807 50.6008 10.0807C52.4198 10.0807 54.0004 10.3943 55.3427 11.0215C56.6976 11.6362 57.6886 12.6147 58.3158 13.957C58.642 14.6219 58.8427 15.3244 58.918 16.0645C58.9933 16.8047 59.0309 17.6013 59.0309 18.4543V30.9678H55.5497V26.3199L56.2271 26.9221C55.3866 28.4776 54.314 29.638 53.0094 30.4032C51.7173 31.1559 50.1241 31.5323 48.2298 31.5323ZM48.926 28.3145C50.0425 28.3145 51.0022 28.1201 51.8051 27.7312C52.608 27.3298 53.254 26.8217 53.7433 26.207C54.2325 25.5923 54.5524 24.9525 54.7029 24.2877C54.9162 23.6855 55.0354 23.0081 55.0605 22.2554C55.0981 21.5027 55.1169 20.9006 55.1169 20.4489L56.3965 20.9194C55.1546 21.1075 54.0255 21.2769 53.0094 21.4274C51.9933 21.578 51.0712 21.7285 50.2433 21.879C49.4278 22.017 48.7002 22.1864 48.0605 22.3871C47.521 22.5753 47.0381 22.8011 46.6115 23.0645C46.1976 23.328 45.8651 23.6479 45.6142 24.0242C45.3759 24.4006 45.2567 24.8584 45.2567 25.3979C45.2567 25.9247 45.3884 26.414 45.6519 26.8656C45.9153 27.3047 46.3167 27.6559 46.8562 27.9194C47.3956 28.1828 48.0855 28.3145 48.926 28.3145Z" fill="#1C2E40"/>
<path d="M61.6591 30.9678V5.00113H65.5919V30.9678H61.6591Z" fill="#1C2E40"/>
<path d="M71.3556 40L75.2884 29.293L75.3448 32.4543L66.4819 10.6452H70.5841L77.2077 27.4866H76.0034L82.326 10.6452H86.3153L75.1002 40H71.3556Z" fill="#1C2E40"/>
<path d="M8.65821 11.0803C7.78727 11.6668 7.15534 12.5461 6.877 13.5585C6.79418 13.9115 6.75003 14.2724 6.74535 14.635V32.5322L6.41234 32.7336C5.76346 33.1109 5.02651 33.3105 4.27588 33.312C3.52525 33.3135 2.7875 33.117 2.13708 32.7423C1.48665 32.3676 0.946583 31.828 0.571366 31.1779C0.196148 30.5277 -0.000935872 29.7901 3.34124e-06 29.0395V21.2951C3.34124e-06 15.5875 7.28745 11.9632 8.65821 11.0803Z" fill="#CAD3DB"/>
<path fill-rule="evenodd" clip-rule="evenodd" d="M0 21.2954L0.00795698 21.2934C0.00795698 16.1786 5.86013 12.7368 8.06231 11.4417C8.27268 11.318 8.44975 11.2138 8.58522 11.1297C8.67702 11.066 8.77149 11.0058 8.86844 10.9493L20.1647 4.37721V4.28443C20.1662 3.53049 19.9684 2.78955 19.5912 2.13673C19.214 1.48392 18.671 0.942438 18.017 0.567196C17.3631 0.191955 16.6216 -0.00370551 15.8677 5.31493e-05C15.1137 0.00381181 14.3742 0.206856 13.7241 0.588599L2.12626 7.34624C1.47999 7.72298 0.943642 8.26239 0.570602 8.9108C0.197561 9.55921 0.000834484 10.294 0 11.0421V21.2954Z" fill="#0E85FF"/>
</svg>
